<mxfile host="app.diagrams.net" modified="2024-02-08T11:33:36.020Z" agent="Mozilla/5.0 (Windows NT 10.0; Win64; x64) AppleWebKit/537.36 (KHTML, like Gecko) Chrome/121.0.0.0 Safari/537.36" etag="d1MRchGT18m6GW-em0GH" version="23.1.2" type="github">
  <diagram name="1 oldal" id="_PnVv9DQnDqrPiTagzQH">
    <mxGraphModel dx="2304" dy="1982" grid="0" gridSize="10" guides="1" tooltips="1" connect="1" arrows="1" fold="1" page="0" pageScale="1" pageWidth="827" pageHeight="1169" math="0" shadow="0">
      <root>
        <mxCell id="0" />
        <mxCell id="1" parent="0" />
        <mxCell id="8tgw-kaVaHBloFNQB8pz-2" value="GÉP" style="whiteSpace=wrap;html=1;align=center;fontSize=16;" vertex="1" parent="1">
          <mxGeometry x="-556" y="-600" width="100" height="40" as="geometry" />
        </mxCell>
        <mxCell id="8tgw-kaVaHBloFNQB8pz-3" value="KATEGÓRIA" style="whiteSpace=wrap;html=1;align=center;fontSize=16;" vertex="1" parent="1">
          <mxGeometry x="-1149" y="-600" width="100" height="40" as="geometry" />
        </mxCell>
        <mxCell id="8tgw-kaVaHBloFNQB8pz-4" value="VÉDŐFELSZERELÉS" style="whiteSpace=wrap;html=1;align=center;fontSize=16;" vertex="1" parent="1">
          <mxGeometry x="-588" y="-330" width="164" height="40" as="geometry" />
        </mxCell>
        <mxCell id="8tgw-kaVaHBloFNQB8pz-5" value="ÜGYFÉL" style="whiteSpace=wrap;html=1;align=center;fontSize=16;" vertex="1" parent="1">
          <mxGeometry x="-1149" y="-333" width="100" height="40" as="geometry" />
        </mxCell>
        <mxCell id="8tgw-kaVaHBloFNQB8pz-9" value="tartozik" style="shape=rhombus;perimeter=rhombusPerimeter;whiteSpace=wrap;html=1;align=center;fontSize=16;" vertex="1" parent="1">
          <mxGeometry x="-888" y="-610" width="120" height="60" as="geometry" />
        </mxCell>
        <mxCell id="8tgw-kaVaHBloFNQB8pz-10" value="" style="endArrow=none;html=1;rounded=0;fontSize=12;curved=1;startSize=8;endSize=8;entryX=0;entryY=0.5;entryDx=0;entryDy=0;exitX=1;exitY=0.5;exitDx=0;exitDy=0;" edge="1" parent="1" source="8tgw-kaVaHBloFNQB8pz-9" target="8tgw-kaVaHBloFNQB8pz-2">
          <mxGeometry relative="1" as="geometry">
            <mxPoint x="-766" y="-580.71" as="sourcePoint" />
            <mxPoint x="-606" y="-580.71" as="targetPoint" />
            <Array as="points" />
          </mxGeometry>
        </mxCell>
        <mxCell id="8tgw-kaVaHBloFNQB8pz-11" value="N" style="resizable=0;html=1;whiteSpace=wrap;align=right;verticalAlign=bottom;fontSize=16;" connectable="0" vertex="1" parent="8tgw-kaVaHBloFNQB8pz-10">
          <mxGeometry x="1" relative="1" as="geometry" />
        </mxCell>
        <mxCell id="8tgw-kaVaHBloFNQB8pz-12" value="" style="endArrow=none;html=1;rounded=0;dashed=1;dashPattern=1 2;fontSize=12;curved=1;startSize=8;endSize=8;" edge="1" parent="1">
          <mxGeometry relative="1" as="geometry">
            <mxPoint x="-1047" y="-578" as="sourcePoint" />
            <mxPoint x="-890" y="-578" as="targetPoint" />
            <Array as="points">
              <mxPoint x="-954" y="-578" />
            </Array>
          </mxGeometry>
        </mxCell>
        <mxCell id="8tgw-kaVaHBloFNQB8pz-13" value="1" style="resizable=0;html=1;whiteSpace=wrap;align=right;verticalAlign=bottom;fontSize=16;" connectable="0" vertex="1" parent="8tgw-kaVaHBloFNQB8pz-12">
          <mxGeometry x="1" relative="1" as="geometry">
            <mxPoint x="-143" y="-2" as="offset" />
          </mxGeometry>
        </mxCell>
        <mxCell id="8tgw-kaVaHBloFNQB8pz-14" value="tartozik" style="shape=rhombus;perimeter=rhombusPerimeter;whiteSpace=wrap;html=1;align=center;fontSize=16;" vertex="1" parent="1">
          <mxGeometry x="-564" y="-489" width="120" height="60" as="geometry" />
        </mxCell>
        <mxCell id="8tgw-kaVaHBloFNQB8pz-18" value="" style="endArrow=none;html=1;rounded=0;fontSize=12;curved=1;startSize=8;endSize=8;exitX=0.5;exitY=1;exitDx=0;exitDy=0;" edge="1" parent="1" source="8tgw-kaVaHBloFNQB8pz-14">
          <mxGeometry relative="1" as="geometry">
            <mxPoint x="-584" y="-386" as="sourcePoint" />
            <mxPoint x="-498" y="-326" as="targetPoint" />
            <Array as="points">
              <mxPoint x="-504" y="-386" />
            </Array>
          </mxGeometry>
        </mxCell>
        <mxCell id="8tgw-kaVaHBloFNQB8pz-19" value="1" style="resizable=0;html=1;whiteSpace=wrap;align=right;verticalAlign=bottom;fontSize=16;" connectable="0" vertex="1" parent="8tgw-kaVaHBloFNQB8pz-18">
          <mxGeometry x="1" relative="1" as="geometry" />
        </mxCell>
        <mxCell id="8tgw-kaVaHBloFNQB8pz-24" value="" style="endArrow=none;html=1;rounded=0;dashed=1;dashPattern=1 2;fontSize=12;curved=1;startSize=8;endSize=8;entryX=0.5;entryY=0;entryDx=0;entryDy=0;exitX=0.5;exitY=1;exitDx=0;exitDy=0;" edge="1" parent="1" source="8tgw-kaVaHBloFNQB8pz-2" target="8tgw-kaVaHBloFNQB8pz-14">
          <mxGeometry relative="1" as="geometry">
            <mxPoint x="-594" y="-514" as="sourcePoint" />
            <mxPoint x="-434" y="-514" as="targetPoint" />
          </mxGeometry>
        </mxCell>
        <mxCell id="8tgw-kaVaHBloFNQB8pz-25" value="N" style="resizable=0;html=1;whiteSpace=wrap;align=right;verticalAlign=bottom;fontSize=16;" connectable="0" vertex="1" parent="8tgw-kaVaHBloFNQB8pz-24">
          <mxGeometry x="1" relative="1" as="geometry">
            <mxPoint x="-2" y="-47" as="offset" />
          </mxGeometry>
        </mxCell>
        <mxCell id="8tgw-kaVaHBloFNQB8pz-26" value="Kölcsönöz" style="shape=rhombus;perimeter=rhombusPerimeter;whiteSpace=wrap;html=1;align=center;fontSize=16;rotation=-30;" vertex="1" parent="1">
          <mxGeometry x="-844" y="-454" width="120" height="60" as="geometry" />
        </mxCell>
        <mxCell id="8tgw-kaVaHBloFNQB8pz-27" value="" style="endArrow=none;html=1;rounded=0;dashed=1;dashPattern=1 2;fontSize=12;curved=1;startSize=8;endSize=8;exitX=1;exitY=0.5;exitDx=0;exitDy=0;" edge="1" parent="1" source="8tgw-kaVaHBloFNQB8pz-26">
          <mxGeometry relative="1" as="geometry">
            <mxPoint x="-754" y="-495" as="sourcePoint" />
            <mxPoint x="-557" y="-564" as="targetPoint" />
          </mxGeometry>
        </mxCell>
        <mxCell id="8tgw-kaVaHBloFNQB8pz-28" value="M" style="resizable=0;html=1;whiteSpace=wrap;align=right;verticalAlign=bottom;fontSize=16;" connectable="0" vertex="1" parent="8tgw-kaVaHBloFNQB8pz-27">
          <mxGeometry x="1" relative="1" as="geometry">
            <mxPoint x="-19" y="16" as="offset" />
          </mxGeometry>
        </mxCell>
        <mxCell id="8tgw-kaVaHBloFNQB8pz-29" value="" style="endArrow=none;html=1;rounded=0;dashed=1;dashPattern=1 2;fontSize=12;curved=1;startSize=8;endSize=8;exitX=1;exitY=0.75;exitDx=0;exitDy=0;" edge="1" parent="1">
          <mxGeometry relative="1" as="geometry">
            <mxPoint x="-1053" y="-315" as="sourcePoint" />
            <mxPoint x="-828" y="-396" as="targetPoint" />
          </mxGeometry>
        </mxCell>
        <mxCell id="8tgw-kaVaHBloFNQB8pz-30" value="N" style="resizable=0;html=1;whiteSpace=wrap;align=right;verticalAlign=bottom;fontSize=16;" connectable="0" vertex="1" parent="8tgw-kaVaHBloFNQB8pz-29">
          <mxGeometry x="1" relative="1" as="geometry">
            <mxPoint x="-207" y="72" as="offset" />
          </mxGeometry>
        </mxCell>
        <mxCell id="8tgw-kaVaHBloFNQB8pz-31" value="kategória.id" style="ellipse;whiteSpace=wrap;html=1;align=center;fontSize=16;" vertex="1" parent="1">
          <mxGeometry x="-1246" y="-792" width="100" height="54" as="geometry" />
        </mxCell>
        <mxCell id="8tgw-kaVaHBloFNQB8pz-32" style="rounded=0;orthogonalLoop=1;jettySize=auto;html=1;entryX=0.393;entryY=0.032;entryDx=0;entryDy=0;entryPerimeter=0;fontSize=12;startSize=8;endSize=8;endArrow=none;endFill=0;" edge="1" parent="1" source="8tgw-kaVaHBloFNQB8pz-31" target="8tgw-kaVaHBloFNQB8pz-3">
          <mxGeometry relative="1" as="geometry" />
        </mxCell>
        <mxCell id="8tgw-kaVaHBloFNQB8pz-34" style="edgeStyle=none;shape=connector;rounded=0;orthogonalLoop=1;jettySize=auto;html=1;labelBackgroundColor=default;strokeColor=default;align=center;verticalAlign=middle;fontFamily=Helvetica;fontSize=12;fontColor=default;endArrow=none;endFill=0;startSize=8;endSize=8;" edge="1" parent="1" source="8tgw-kaVaHBloFNQB8pz-33" target="8tgw-kaVaHBloFNQB8pz-3">
          <mxGeometry relative="1" as="geometry" />
        </mxCell>
        <mxCell id="8tgw-kaVaHBloFNQB8pz-33" value="kategória.név" style="ellipse;whiteSpace=wrap;html=1;align=center;fontFamily=Helvetica;fontSize=12;fontColor=default;" vertex="1" parent="1">
          <mxGeometry x="-1129" y="-822" width="100" height="40" as="geometry" />
        </mxCell>
        <mxCell id="8tgw-kaVaHBloFNQB8pz-35" value="felszerelés.id" style="ellipse;whiteSpace=wrap;html=1;align=center;fontStyle=4;fontFamily=Helvetica;fontSize=12;fontColor=default;" vertex="1" parent="1">
          <mxGeometry x="-721" y="-198" width="100" height="40" as="geometry" />
        </mxCell>
        <mxCell id="8tgw-kaVaHBloFNQB8pz-36" style="edgeStyle=none;shape=connector;rounded=0;orthogonalLoop=1;jettySize=auto;html=1;entryX=0.053;entryY=0.986;entryDx=0;entryDy=0;entryPerimeter=0;labelBackgroundColor=default;strokeColor=default;align=center;verticalAlign=middle;fontFamily=Helvetica;fontSize=12;fontColor=default;endArrow=none;endFill=0;startSize=8;endSize=8;" edge="1" parent="1" source="8tgw-kaVaHBloFNQB8pz-35" target="8tgw-kaVaHBloFNQB8pz-4">
          <mxGeometry relative="1" as="geometry" />
        </mxCell>
        <mxCell id="8tgw-kaVaHBloFNQB8pz-39" style="edgeStyle=none;shape=connector;rounded=0;orthogonalLoop=1;jettySize=auto;html=1;labelBackgroundColor=default;strokeColor=default;align=center;verticalAlign=middle;fontFamily=Helvetica;fontSize=12;fontColor=default;endArrow=none;endFill=0;startSize=8;endSize=8;" edge="1" parent="1" source="8tgw-kaVaHBloFNQB8pz-38">
          <mxGeometry relative="1" as="geometry">
            <mxPoint x="-549" y="-287.7142857142858" as="targetPoint" />
          </mxGeometry>
        </mxCell>
        <mxCell id="8tgw-kaVaHBloFNQB8pz-38" value="felszerelés kategória" style="ellipse;whiteSpace=wrap;html=1;align=center;fontFamily=Helvetica;fontSize=12;fontColor=default;" vertex="1" parent="1">
          <mxGeometry x="-599" y="-194" width="100" height="40" as="geometry" />
        </mxCell>
        <mxCell id="8tgw-kaVaHBloFNQB8pz-41" value="gép.id" style="ellipse;whiteSpace=wrap;html=1;align=center;fontStyle=4;fontFamily=Helvetica;fontSize=12;fontColor=default;" vertex="1" parent="1">
          <mxGeometry x="-681" y="-782" width="85" height="30" as="geometry" />
        </mxCell>
        <mxCell id="8tgw-kaVaHBloFNQB8pz-42" style="edgeStyle=none;shape=connector;rounded=0;orthogonalLoop=1;jettySize=auto;html=1;entryX=0.11;entryY=0.045;entryDx=0;entryDy=0;entryPerimeter=0;labelBackgroundColor=default;strokeColor=default;align=center;verticalAlign=middle;fontFamily=Helvetica;fontSize=12;fontColor=default;endArrow=none;endFill=0;startSize=8;endSize=8;" edge="1" parent="1" source="8tgw-kaVaHBloFNQB8pz-41" target="8tgw-kaVaHBloFNQB8pz-2">
          <mxGeometry relative="1" as="geometry" />
        </mxCell>
        <mxCell id="8tgw-kaVaHBloFNQB8pz-44" style="edgeStyle=none;shape=connector;rounded=0;orthogonalLoop=1;jettySize=auto;html=1;entryX=0.25;entryY=0;entryDx=0;entryDy=0;labelBackgroundColor=default;strokeColor=default;align=center;verticalAlign=middle;fontFamily=Helvetica;fontSize=12;fontColor=default;endArrow=none;endFill=0;startSize=8;endSize=8;" edge="1" parent="1" source="8tgw-kaVaHBloFNQB8pz-43" target="8tgw-kaVaHBloFNQB8pz-2">
          <mxGeometry relative="1" as="geometry" />
        </mxCell>
        <mxCell id="8tgw-kaVaHBloFNQB8pz-43" value="bérleti díj" style="ellipse;whiteSpace=wrap;html=1;align=center;fontFamily=Helvetica;fontSize=12;fontColor=default;" vertex="1" parent="1">
          <mxGeometry x="-562" y="-782" width="63" height="28" as="geometry" />
        </mxCell>
        <mxCell id="8tgw-kaVaHBloFNQB8pz-46" style="edgeStyle=none;shape=connector;rounded=0;orthogonalLoop=1;jettySize=auto;html=1;entryX=0.5;entryY=0;entryDx=0;entryDy=0;labelBackgroundColor=default;strokeColor=default;align=center;verticalAlign=middle;fontFamily=Helvetica;fontSize=12;fontColor=default;endArrow=none;endFill=0;startSize=8;endSize=8;" edge="1" parent="1" source="8tgw-kaVaHBloFNQB8pz-45" target="8tgw-kaVaHBloFNQB8pz-2">
          <mxGeometry relative="1" as="geometry" />
        </mxCell>
        <mxCell id="8tgw-kaVaHBloFNQB8pz-45" value="utolsó szervíz" style="ellipse;whiteSpace=wrap;html=1;align=center;fontFamily=Helvetica;fontSize=12;fontColor=default;" vertex="1" parent="1">
          <mxGeometry x="-474" y="-792" width="88" height="32" as="geometry" />
        </mxCell>
        <mxCell id="8tgw-kaVaHBloFNQB8pz-48" style="edgeStyle=none;shape=connector;rounded=0;orthogonalLoop=1;jettySize=auto;html=1;entryX=0.5;entryY=0;entryDx=0;entryDy=0;labelBackgroundColor=default;strokeColor=default;align=center;verticalAlign=middle;fontFamily=Helvetica;fontSize=12;fontColor=default;endArrow=none;endFill=0;startSize=8;endSize=8;" edge="1" parent="1" source="8tgw-kaVaHBloFNQB8pz-47" target="8tgw-kaVaHBloFNQB8pz-26">
          <mxGeometry relative="1" as="geometry" />
        </mxCell>
        <mxCell id="8tgw-kaVaHBloFNQB8pz-47" value="ki_dátum" style="ellipse;whiteSpace=wrap;html=1;align=center;fontFamily=Helvetica;fontSize=12;fontColor=default;" vertex="1" parent="1">
          <mxGeometry x="-917" y="-505" width="81" height="34" as="geometry" />
        </mxCell>
        <mxCell id="8tgw-kaVaHBloFNQB8pz-51" style="edgeStyle=none;shape=connector;rounded=0;orthogonalLoop=1;jettySize=auto;html=1;labelBackgroundColor=default;strokeColor=default;align=center;verticalAlign=middle;fontFamily=Helvetica;fontSize=12;fontColor=default;endArrow=none;endFill=0;startSize=8;endSize=8;" edge="1" parent="1" source="8tgw-kaVaHBloFNQB8pz-49" target="8tgw-kaVaHBloFNQB8pz-5">
          <mxGeometry relative="1" as="geometry" />
        </mxCell>
        <mxCell id="8tgw-kaVaHBloFNQB8pz-49" value="személy igazolvány szám" style="ellipse;whiteSpace=wrap;html=1;align=center;fontStyle=4;fontFamily=Helvetica;fontSize=12;fontColor=default;" vertex="1" parent="1">
          <mxGeometry x="-1282" y="-217" width="115" height="47" as="geometry" />
        </mxCell>
        <mxCell id="8tgw-kaVaHBloFNQB8pz-52" value="Név" style="ellipse;whiteSpace=wrap;html=1;align=center;fontFamily=Helvetica;fontSize=12;fontColor=default;" vertex="1" parent="1">
          <mxGeometry x="-1171" y="-210" width="70" height="29" as="geometry" />
        </mxCell>
        <mxCell id="8tgw-kaVaHBloFNQB8pz-53" style="edgeStyle=none;shape=connector;rounded=0;orthogonalLoop=1;jettySize=auto;html=1;entryX=0.421;entryY=1.156;entryDx=0;entryDy=0;entryPerimeter=0;labelBackgroundColor=default;strokeColor=default;align=center;verticalAlign=middle;fontFamily=Helvetica;fontSize=12;fontColor=default;endArrow=none;endFill=0;startSize=8;endSize=8;" edge="1" parent="1" source="8tgw-kaVaHBloFNQB8pz-52" target="8tgw-kaVaHBloFNQB8pz-5">
          <mxGeometry relative="1" as="geometry" />
        </mxCell>
        <mxCell id="8tgw-kaVaHBloFNQB8pz-55" style="edgeStyle=none;shape=connector;rounded=0;orthogonalLoop=1;jettySize=auto;html=1;labelBackgroundColor=default;strokeColor=default;align=center;verticalAlign=middle;fontFamily=Helvetica;fontSize=12;fontColor=default;endArrow=none;endFill=0;startSize=8;endSize=8;" edge="1" parent="1" source="8tgw-kaVaHBloFNQB8pz-54">
          <mxGeometry relative="1" as="geometry">
            <mxPoint x="-1085.904761904762" y="-288.66666666666674" as="targetPoint" />
          </mxGeometry>
        </mxCell>
        <mxCell id="8tgw-kaVaHBloFNQB8pz-54" value="Lakcím" style="ellipse;whiteSpace=wrap;html=1;align=center;fontFamily=Helvetica;fontSize=12;fontColor=default;" vertex="1" parent="1">
          <mxGeometry x="-1087" y="-207.5" width="67" height="28" as="geometry" />
        </mxCell>
        <mxCell id="8tgw-kaVaHBloFNQB8pz-56" value="irányító szám" style="ellipse;whiteSpace=wrap;html=1;align=center;fontFamily=Helvetica;fontSize=12;fontColor=default;" vertex="1" parent="1">
          <mxGeometry x="-1157" y="-137" width="68" height="31" as="geometry" />
        </mxCell>
        <mxCell id="8tgw-kaVaHBloFNQB8pz-57" style="edgeStyle=none;shape=connector;rounded=0;orthogonalLoop=1;jettySize=auto;html=1;entryX=0.258;entryY=1.013;entryDx=0;entryDy=0;entryPerimeter=0;labelBackgroundColor=default;strokeColor=default;align=center;verticalAlign=middle;fontFamily=Helvetica;fontSize=12;fontColor=default;endArrow=none;endFill=0;startSize=8;endSize=8;" edge="1" parent="1" source="8tgw-kaVaHBloFNQB8pz-56" target="8tgw-kaVaHBloFNQB8pz-54">
          <mxGeometry relative="1" as="geometry" />
        </mxCell>
        <mxCell id="8tgw-kaVaHBloFNQB8pz-59" style="edgeStyle=none;shape=connector;rounded=0;orthogonalLoop=1;jettySize=auto;html=1;entryX=0.5;entryY=1;entryDx=0;entryDy=0;labelBackgroundColor=default;strokeColor=default;align=center;verticalAlign=middle;fontFamily=Helvetica;fontSize=12;fontColor=default;endArrow=none;endFill=0;startSize=8;endSize=8;" edge="1" parent="1" source="8tgw-kaVaHBloFNQB8pz-58" target="8tgw-kaVaHBloFNQB8pz-54">
          <mxGeometry relative="1" as="geometry" />
        </mxCell>
        <mxCell id="8tgw-kaVaHBloFNQB8pz-58" value="város" style="ellipse;whiteSpace=wrap;html=1;align=center;fontFamily=Helvetica;fontSize=12;fontColor=default;" vertex="1" parent="1">
          <mxGeometry x="-1082" y="-125" width="65" height="19" as="geometry" />
        </mxCell>
        <mxCell id="8tgw-kaVaHBloFNQB8pz-61" style="edgeStyle=none;shape=connector;rounded=0;orthogonalLoop=1;jettySize=auto;html=1;entryX=1;entryY=1;entryDx=0;entryDy=0;labelBackgroundColor=default;strokeColor=default;align=center;verticalAlign=middle;fontFamily=Helvetica;fontSize=12;fontColor=default;endArrow=none;endFill=0;startSize=8;endSize=8;" edge="1" parent="1" source="8tgw-kaVaHBloFNQB8pz-60" target="8tgw-kaVaHBloFNQB8pz-54">
          <mxGeometry relative="1" as="geometry" />
        </mxCell>
        <mxCell id="8tgw-kaVaHBloFNQB8pz-60" value="utca,házszám" style="ellipse;whiteSpace=wrap;html=1;align=center;fontFamily=Helvetica;fontSize=12;fontColor=default;" vertex="1" parent="1">
          <mxGeometry x="-1010" y="-130.5" width="75" height="30" as="geometry" />
        </mxCell>
        <mxCell id="8tgw-kaVaHBloFNQB8pz-63" style="edgeStyle=none;shape=connector;rounded=0;orthogonalLoop=1;jettySize=auto;html=1;entryX=1;entryY=1;entryDx=0;entryDy=0;labelBackgroundColor=default;strokeColor=default;align=center;verticalAlign=middle;fontFamily=Helvetica;fontSize=12;fontColor=default;endArrow=none;endFill=0;startSize=8;endSize=8;" edge="1" parent="1" source="8tgw-kaVaHBloFNQB8pz-62" target="8tgw-kaVaHBloFNQB8pz-5">
          <mxGeometry relative="1" as="geometry" />
        </mxCell>
        <mxCell id="8tgw-kaVaHBloFNQB8pz-62" value="email-cím" style="ellipse;shape=doubleEllipse;margin=3;whiteSpace=wrap;html=1;align=center;fontFamily=Helvetica;fontSize=12;fontColor=default;" vertex="1" parent="1">
          <mxGeometry x="-1017" y="-215" width="84" height="31" as="geometry" />
        </mxCell>
        <mxCell id="8tgw-kaVaHBloFNQB8pz-65" style="edgeStyle=none;shape=connector;rounded=0;orthogonalLoop=1;jettySize=auto;html=1;labelBackgroundColor=default;strokeColor=default;align=center;verticalAlign=middle;fontFamily=Helvetica;fontSize=12;fontColor=default;endArrow=none;endFill=0;startSize=8;endSize=8;entryX=1;entryY=0.75;entryDx=0;entryDy=0;" edge="1" parent="1" source="8tgw-kaVaHBloFNQB8pz-64" target="8tgw-kaVaHBloFNQB8pz-5">
          <mxGeometry relative="1" as="geometry">
            <mxPoint x="-1052" y="-306" as="targetPoint" />
          </mxGeometry>
        </mxCell>
        <mxCell id="8tgw-kaVaHBloFNQB8pz-64" value="telefon szám" style="ellipse;shape=doubleEllipse;margin=3;whiteSpace=wrap;html=1;align=center;fontFamily=Helvetica;fontSize=12;fontColor=default;" vertex="1" parent="1">
          <mxGeometry x="-963" y="-251" width="75" height="34" as="geometry" />
        </mxCell>
        <mxCell id="8tgw-kaVaHBloFNQB8pz-66" value="SZERVÍZ" style="whiteSpace=wrap;html=1;align=center;fontFamily=Helvetica;fontSize=12;fontColor=default;" vertex="1" parent="1">
          <mxGeometry x="-359" y="-600" width="100" height="40" as="geometry" />
        </mxCell>
        <mxCell id="8tgw-kaVaHBloFNQB8pz-67" value="GYÁRTÓ" style="whiteSpace=wrap;html=1;align=center;fontFamily=Helvetica;fontSize=12;fontColor=default;" vertex="1" parent="1">
          <mxGeometry x="-890" y="-822" width="100" height="40" as="geometry" />
        </mxCell>
        <mxCell id="8tgw-kaVaHBloFNQB8pz-68" value="kaukció" style="ellipse;whiteSpace=wrap;html=1;align=center;fontFamily=Helvetica;fontSize=12;fontColor=default;" vertex="1" parent="1">
          <mxGeometry x="-857" y="-531" width="76" height="31" as="geometry" />
        </mxCell>
        <mxCell id="8tgw-kaVaHBloFNQB8pz-69" style="edgeStyle=none;shape=connector;rounded=0;orthogonalLoop=1;jettySize=auto;html=1;entryX=0.571;entryY=0.033;entryDx=0;entryDy=0;entryPerimeter=0;labelBackgroundColor=default;strokeColor=default;align=center;verticalAlign=middle;fontFamily=Helvetica;fontSize=12;fontColor=default;endArrow=none;endFill=0;startSize=8;endSize=8;" edge="1" parent="1" source="8tgw-kaVaHBloFNQB8pz-68" target="8tgw-kaVaHBloFNQB8pz-26">
          <mxGeometry relative="1" as="geometry" />
        </mxCell>
        <mxCell id="8tgw-kaVaHBloFNQB8pz-71" style="edgeStyle=none;shape=connector;rounded=0;orthogonalLoop=1;jettySize=auto;html=1;labelBackgroundColor=default;strokeColor=default;align=center;verticalAlign=middle;fontFamily=Helvetica;fontSize=12;fontColor=default;endArrow=none;endFill=0;startSize=8;endSize=8;" edge="1" parent="1" source="8tgw-kaVaHBloFNQB8pz-70" target="8tgw-kaVaHBloFNQB8pz-26">
          <mxGeometry relative="1" as="geometry" />
        </mxCell>
        <mxCell id="8tgw-kaVaHBloFNQB8pz-70" value="vissza dátum" style="ellipse;whiteSpace=wrap;html=1;align=center;fontFamily=Helvetica;fontSize=12;fontColor=default;" vertex="1" parent="1">
          <mxGeometry x="-778" y="-533.5" width="64" height="28.5" as="geometry" />
        </mxCell>
        <mxCell id="8tgw-kaVaHBloFNQB8pz-73" style="edgeStyle=none;shape=connector;rounded=0;orthogonalLoop=1;jettySize=auto;html=1;entryX=0;entryY=0;entryDx=0;entryDy=0;labelBackgroundColor=default;strokeColor=default;align=center;verticalAlign=middle;fontFamily=Helvetica;fontSize=12;fontColor=default;endArrow=none;endFill=0;startSize=8;endSize=8;" edge="1" parent="1" source="8tgw-kaVaHBloFNQB8pz-72" target="8tgw-kaVaHBloFNQB8pz-26">
          <mxGeometry relative="1" as="geometry" />
        </mxCell>
        <mxCell id="8tgw-kaVaHBloFNQB8pz-72" value="kölcsönzés díja" style="ellipse;whiteSpace=wrap;html=1;align=center;dashed=1;fontFamily=Helvetica;fontSize=12;fontColor=default;" vertex="1" parent="1">
          <mxGeometry x="-970" y="-460" width="74" height="35" as="geometry" />
        </mxCell>
      </root>
    </mxGraphModel>
  </diagram>
</mxfile>
